<?xml version="1.0" encoding="UTF-8" standalone="no"?>
<svg
   width="456"
   height="456"
   viewBox="0 0 456 456"
   version="1.1"
   xml:space="preserve"
   style="fill-rule:evenodd;clip-rule:evenodd;stroke-linejoin:round;stroke-miterlimit:2;"
   id="svg2439"
   sodipodi:docname="appiconfg.svg"
   inkscape:version="1.2 (dc2aedaf03, 2022-05-15)"
   xmlns:inkscape="http://www.inkscape.org/namespaces/inkscape"
   xmlns:sodipodi="http://sodipodi.sourceforge.net/DTD/sodipodi-0.dtd"
   xmlns="http://www.w3.org/2000/svg"
   xmlns:svg="http://www.w3.org/2000/svg"><defs
   id="defs2443" /><sodipodi:namedview
   id="namedview2441"
   pagecolor="#ffffff"
   bordercolor="#000000"
   borderopacity="0.25"
   inkscape:showpageshadow="2"
   inkscape:pageopacity="0.0"
   inkscape:pagecheckerboard="0"
   inkscape:deskcolor="#d1d1d1"
   showgrid="false"
   inkscape:zoom="1.8355263"
   inkscape:cx="127.48387"
   inkscape:cy="97.519713"
   inkscape:window-width="1920"
   inkscape:window-height="1017"
   inkscape:window-x="1912"
   inkscape:window-y="-8"
   inkscape:window-maximized="1"
   inkscape:current-layer="svg2439" />
    
    
    
    
<g
   id="g2477"
   transform="matrix(4.5599897,0,0,4.5599897,27.223654,0.00103089)"
   style="fill:#ffffff"><path
     d="M 6.755,25.72 C 14.137,16.639 24.759,10.295 36.848,8.475 L 31.334,1.604 C 28.466,-1.363 22.265,-0.093 14.466,4.411 6.667,8.915 2.468,13.648 3.602,17.615 Z"
     id="path2459"
     style="fill:#ffffff" /><path
     d="m 44.03,23.948 c -1.658,0 -3.002,1.344 -3.002,3.002 V 52.968 H 15.01 c -1.658,0 -3.002,1.344 -3.002,3.002 0,1.658 1.344,3.002 3.002,3.002 h 29.02 c 1.658,0 3.002,-1.344 3.002,-3.002 V 26.95 c 0,-1.658 -1.344,-3.002 -3.002,-3.002 z"
     id="path2461"
     style="fill:#ffffff" /><path
     d="M 81.306,25.72 C 73.924,16.639 63.302,10.295 51.213,8.475 l 5.514,-6.871 c 2.868,-2.967 9.069,-1.697 16.868,2.807 7.799,4.504 11.998,9.237 10.864,13.204 z"
     id="path2463"
     style="fill:#ffffff" /><path
     d="M 44.03,11.939 C 19.752,11.939 0,31.691 0,55.969 0,80.247 19.752,100 44.03,100 68.308,100 88.06,80.248 88.06,55.969 88.06,31.69 68.309,11.939 44.03,11.939 Z m 0,82.057 C 23.062,93.996 6.004,76.937 6.004,55.97 c 0,-20.967 17.058,-38.027 38.026,-38.027 20.968,0 38.026,17.059 38.026,38.026 0,20.967 -17.058,38.027 -38.026,38.027 z"
     id="path2465"
     style="fill:#ffffff" /></g></svg>
